<?xml version="1.0" encoding="UTF-8"?>
<svg id="Layer_2" data-name="Layer 2" xmlns="http://www.w3.org/2000/svg" viewBox="0 0 116.44 86.82">
  <defs>
    <style>
      .cls-1 {
        fill: #537d84;
        stroke-width: 0px;
      }

      .cls-2 {
        fill: #3327ff;
        stroke: #fff;
        stroke-linecap: round;
        stroke-linejoin: round;
        stroke-width: 14.15px;
      }
    </style>
  </defs>
  <g id="Swatch_Info_Layer" data-name="Swatch Info Layer">
    <g>
      <g>
        <path class="cls-1" d="M111.28,1.69c-.14-.33-.33-.63-.58-.88-.25-.25-.54-.45-.87-.59-.33-.14-.69-.21-1.08-.21s-.75.07-1.09.22c-.33.14-.62.35-.87.6-.25.25-.44.55-.58.89-.14.33-.21.69-.21,1.06s.07.73.21,1.06c.14.33.33.63.58.88.25.26.54.46.87.6.33.14.69.22,1.08.22s.75-.08,1.09-.22c.33-.14.62-.35.88-.6.25-.25.45-.55.59-.88.14-.34.21-.69.21-1.07s-.07-.74-.21-1.07ZM110.67,3.57c-.11.25-.25.48-.45.67-.19.19-.42.34-.67.46-.25.11-.53.17-.83.17s-.57-.05-.82-.16c-.25-.11-.47-.26-.66-.45-.19-.19-.34-.41-.44-.67-.11-.25-.16-.52-.16-.81s.05-.56.16-.81c.11-.25.25-.48.44-.67.19-.19.41-.34.66-.46.25-.11.53-.17.83-.17s.57.05.82.16.48.26.67.45c.19.19.34.41.44.67.11.25.16.52.16.81s-.05.56-.16.81Z"/>
        <path class="cls-1" d="M109.9,3.85l-.47-.73c.07-.03.13-.07.19-.12.18-.17.28-.4.28-.71s-.09-.52-.28-.67c-.19-.16-.45-.23-.8-.23h-.6c-.29,0-.52.23-.52.52v1.64c0,.24.19.42.42.42.13,0,.24-.11.24-.24v-.49h.49l.26.49c.08.15.23.24.4.24h.3c.05,0,.11,0,.13-.04,0-.02,0-.04-.03-.08ZM108.35,1.88h.46c.14,0,.26.04.33.11.08.07.11.18.11.32,0,.13-.04.23-.11.31s-.19.11-.33.11h-.46v-.84Z"/>
      </g>
      <g>
        <g>
          <path class="cls-2" d="M55.98,65.76l.15,5.51c.03.99-.05,2.06-.18,3.01-.59,4.26-4.73,5.6-8.41,4.84-5.06-1.04-5.08-6.03-4.8-10.27l.19-2.93c.22-3.28.27-6.45,0-9.75-.16-2.07-.45-4.05-.23-6.09.18-1.68,1.35-2.9,2.92-3.44.32-.11.9-.39,1.2-.42,2.15-.22,5.29-.39,6.64,1.58.62.91.74,1.95,1.01,3.06,2.49-3.41,4.11-4.4,8.13-5.01,1.07-.16,1.9-.11,2.95.02,3.73.46,6.98,2.59,8.36,6.21,1.06,2.79,1.39,5.8,1.23,8.8-.09,1.69-.13,3.33-.02,5.02l.47,6.88c.1,1.47-.47,2.95-1.29,4.1-1.24,1.73-3.49,2.31-5.51,2.4-2.62.12-5.67-1.33-6.26-4.22-.25-1.2-.56-2.48-.55-3.72.04-4.14.62-6.44.4-10.98-.04-.75-.37-1.69-.7-2.35-.46-.92-1.43-1.24-2.28-1.24-.93,0-1.76.34-2.35,1.17-1.52,2.14-1.13,5.19-1.06,7.82Z"/>
          <path class="cls-2" d="M38.76,54.96c-.88-2.22-2.52-4.3-4.37-5.8-2.58-2.09-5.75-3.05-9.02-3.36-3.73-.35-8.41.68-11.46,2.82-4.98,3.48-6.97,9.72-6.53,15.6.43,5.71,2.95,10.97,8.23,13.59,1.45.72,2.89,1.3,4.49,1.57,6.58,1.15,13.62-.6,17.34-6.45,1.26-1.96,1.98-3.98,2.43-6.27.7-3.91.38-7.97-1.1-11.7ZM27.26,66.57c-.57,1.48-1.93,2.36-3.39,2.42-3.43.13-4.24-3.63-4.28-6.48-.04-2.71.72-6.24,4.06-6.39,1.54-.06,2.83.71,3.49,2.18,1.16,2.57,1.15,5.61.12,8.26Z"/>
          <path class="cls-2" d="M103.22,66.91c-2.71.51-5.34,2.86-9.62,2.1-1.85-.33-3.22-1.71-3.45-3.56,2.84-.12,4.22.18,6.86.07,3.67-.13,8.8-.67,10.94-4.21.92-1.51,1.29-3.31,1.14-5.02-.52-5.98-4.92-9.25-10.52-10.16-3.35-.54-3.71-.39-6.97-.03-.45.05-1.04.2-1.49.31-2.7.63-5.11,1.76-7.13,3.67-3.86,3.65-5.63,9.1-5.22,14.34.61,7.7,4.78,13.23,12.49,14.85,1.17.24,2.4.45,3.58.45,2.79.02,3.79.08,6.47-.49,2.34-.49,4.51-1.4,6.39-2.79,1.56-1.16,2.18-2.76,2.18-4.67,0-3.03-2.48-5.47-5.67-4.87ZM90.37,58.07c.75-2.62,3.78-3.99,6.22-2.75,1.02.52,1.75,1.55,1.6,2.75-.11.89-1.07,1.81-2.07,1.82l-6.28.02.52-1.84Z"/>
        </g>
        <g>
          <path class="cls-2" d="M52.32,37.23c-.81,4.16-5.7,4.74-9.21,4.27-1.58-.21-3.09-.81-4.29-1.86-3.54-3.12-2.66-10.02-2.66-14.37-.29.01-.58,0-.87-.02-1.5-.15-2.61-1.45-2.61-2.95v-2.9c0-.95.61-1.81,1.52-2.08.35-.1.73-.15,1.14-.15,1.74.02.69-1.09,1.36-4.07.64-2.81,3.23-3.68,5.77-3.21,3.54.65,3.56,3.79,3.38,6.87l2.38.11c.35.02.89.15,1.25.24,2.18.56,2.51,2.9,2.34,4.78-.18,2.05-1.69,3.33-3.73,3.26-.72-.03-1.46.11-2.27.17l-.1,3.27c-.04,1.2-.06,3.69.99,4.27,1.08.59,1.75-.23,2.91-.22,2.24.03,3.08,2.69,2.7,4.6Z"/>
          <path class="cls-2" d="M71.94,37.23c-.81,4.16-5.7,4.74-9.21,4.27-1.58-.21-3.09-.81-4.29-1.86-3.54-3.12-2.66-10.02-2.66-14.37-.29.01-.58,0-.87-.02-1.5-.15-2.61-1.45-2.61-2.95v-2.9c0-.95.61-1.81,1.52-2.08.35-.1.73-.15,1.14-.15,1.74.02.69-1.09,1.36-4.07.64-2.81,3.23-3.68,5.77-3.21,3.54.65,3.56,3.79,3.38,6.87l2.38.11c.35.02.89.15,1.25.24,2.18.56,2.51,2.9,2.34,4.78-.18,2.05-1.69,3.33-3.73,3.26-.72-.03-1.46.11-2.27.17l-.1,3.27c-.04,1.2-.06,3.69.99,4.27,1.08.59,1.75-.23,2.91-.22,2.24.03,3.08,2.69,2.7,4.6Z"/>
          <path class="cls-2" d="M105.98,29.86c1.72-.67,2.99-2.13,3.26-4,.15-1.01.19-2.17-.04-3.15-.38-1.67-1.15-3.14-2.29-4.35-1.78-1.88-4.16-2.72-6.66-3.09-1.44-.21-2.78-.11-4.25.14-3.5.6-6.41,2.35-8.28,5.42-1.8,2.96-2.33,5.95-2,9.41.04.43.19.93.27,1.37,1,5.13,4.62,8.66,9.75,9.66,2.02.4,3.94.48,5.94.13,2.04-.36,4.04-.9,5.65-2.27.94-.8,1.68-1.98,1.7-3.31.03-1.86-1.18-3.51-2.91-3.86-2.51-.5-4.44,2-7.65,1.49-1.59-.25-2.96-1.15-3.31-2.92,3.47-.2,7.53.6,10.81-.69ZM94.95,26.05c.41-2.09,1.27-3.93,3.63-3.89,1.26.02,2.24.72,2.5,2.05.15.74-.44,1.62-1.39,1.76-.86.13-1.78.16-2.64.14l-2.1-.06Z"/>
          <path class="cls-2" d="M17.76,35.03c.26,3.35-.99,6.35-4.62,6.59-2.1.14-4.29-.5-5.29-2.52-.43-.87-.71-1.93-.73-2.91-.04-1.6-.04-3.12.03-4.69l.14-3.31.11-3.63c.08-2.8,0-5.52-.19-8.34-.16-2.44-.56-6.48,1.72-7.87,1.69-1.03,3.7-1.1,5.56-.57,3.24.92,3.15,4.23,3.01,6.89l-.23,4.42c-.11,2.18-.1,4.35-.01,6.54l.13,3.21.23,4.4.14,1.79Z"/>
          <path class="cls-2" d="M84.18,35.43c.23,3.22-1.13,5.85-4.58,6.17-.6.06-1.09.05-1.69-.02-1.98-.22-3.67-1.76-4.11-3.7-.15-.66-.28-1.29-.27-1.95l.11-6.46.13-2.55c.14-2.63.12-5.21,0-7.85-.12-2.69-.43-5.34-.09-7.96.21-1.64,1.34-2.86,2.83-3.3,1.7-.5,3.49-.44,5.09.28,2.79,1.24,2.37,5.09,2.24,7.63l-.13,2.69c-.15,3.08-.12,6.09.03,9.15l.13,2.81.12,2.47.18,2.59Z"/>
          <g>
            <path class="cls-2" d="M24.39,41.57c-2.26-.31-4.01-2.12-4.19-4.45-.16-2.11-.07-4.24.02-6.37l.12-2.95.13-3.87c.01-.36.17-.89.26-1.27.22-.91.75-1.75,1.38-2.4,1.43-1.47,5.85-2.02,7.48,1.12.54,1.03.6,2.22.66,3.4l.09,1.92.11,2.09.12,5.04c.03,1.15.13,2.29,0,3.41-.37,3.14-3,4.77-6.18,4.33Z"/>
            <path class="cls-2" d="M29.01,16.13c-2.62,1.73-7.2,1.34-8.74-1.57-.61-1.16-.65-2.56-.33-3.85.46-1.88,2.22-2.99,4.01-3.36,3.03-.63,6.28.66,6.99,3.87.39,1.78-.34,3.86-1.93,4.91Z"/>
          </g>
        </g>
      </g>
      <g>
        <g>
          <path class="cls-1" d="M55.72,66.54l.15,5.51c.03.99-.05,2.06-.18,3.01-.59,4.26-4.73,5.6-8.41,4.84-5.06-1.04-5.08-6.03-4.8-10.27l.19-2.93c.22-3.28.27-6.45,0-9.75-.16-2.07-.45-4.05-.23-6.09.18-1.68,1.35-2.9,2.92-3.44.32-.11.9-.39,1.2-.42,2.15-.22,5.29-.39,6.64,1.58.62.91.74,1.95,1.01,3.06,2.49-3.41,4.11-4.4,8.13-5.01,1.07-.16,1.9-.11,2.95.02,3.73.46,6.98,2.59,8.36,6.21,1.06,2.79,1.39,5.8,1.23,8.8-.09,1.69-.13,3.33-.02,5.02l.47,6.88c.1,1.47-.47,2.95-1.29,4.1-1.24,1.73-3.49,2.31-5.51,2.4-2.62.12-5.67-1.33-6.26-4.22-.25-1.2-.56-2.48-.55-3.72.04-4.14.62-6.44.4-10.98-.04-.75-.37-1.69-.7-2.35-.46-.92-1.43-1.24-2.28-1.24-.93,0-1.76.34-2.35,1.17-1.52,2.14-1.13,5.19-1.06,7.82Z"/>
          <path class="cls-1" d="M38.5,55.74c-.88-2.22-2.52-4.3-4.37-5.8-2.58-2.09-5.75-3.05-9.02-3.36-3.73-.35-8.41.68-11.46,2.82-4.98,3.48-6.97,9.72-6.53,15.6.43,5.71,2.95,10.97,8.23,13.59,1.45.72,2.89,1.3,4.49,1.57,6.58,1.15,13.62-.6,17.34-6.45,1.26-1.96,1.98-3.98,2.43-6.27.7-3.91.38-7.97-1.1-11.7ZM27,67.35c-.57,1.48-1.93,2.36-3.39,2.42-3.43.13-4.24-3.63-4.28-6.48-.04-2.71.72-6.24,4.06-6.39,1.54-.06,2.83.71,3.49,2.18,1.16,2.57,1.15,5.61.12,8.26Z"/>
          <path class="cls-1" d="M102.96,67.68c-2.71.51-5.34,2.86-9.62,2.1-1.85-.33-3.22-1.71-3.45-3.56,2.84-.12,4.22.18,6.86.07,3.67-.13,8.8-.67,10.94-4.21.92-1.51,1.29-3.31,1.14-5.02-.52-5.98-4.92-9.25-10.52-10.16-3.35-.54-3.71-.39-6.97-.03-.45.05-1.04.2-1.49.31-2.7.63-5.11,1.76-7.13,3.67-3.86,3.65-5.63,9.1-5.22,14.34.61,7.7,4.78,13.23,12.49,14.85,1.17.24,2.4.45,3.58.45,2.79.02,3.79.08,6.47-.49,2.34-.49,4.51-1.4,6.39-2.79,1.56-1.16,2.18-2.76,2.18-4.67,0-3.03-2.48-5.47-5.67-4.87ZM90.11,58.84c.75-2.62,3.78-3.99,6.22-2.75,1.02.52,1.75,1.55,1.6,2.75-.11.89-1.07,1.81-2.07,1.82l-6.28.02.52-1.84Z"/>
        </g>
        <g>
          <path class="cls-1" d="M52.07,38.01c-.81,4.16-5.7,4.74-9.21,4.27-1.58-.21-3.09-.81-4.29-1.86-3.54-3.12-2.66-10.02-2.66-14.37-.29.01-.58,0-.87-.02-1.5-.15-2.61-1.45-2.61-2.95v-2.9c0-.95.61-1.81,1.52-2.08.35-.1.73-.15,1.14-.15,1.74.02.69-1.09,1.36-4.07.64-2.81,3.23-3.68,5.77-3.21,3.54.65,3.56,3.79,3.38,6.87l2.38.11c.35.02.89.15,1.25.24,2.18.56,2.51,2.9,2.34,4.78-.18,2.05-1.69,3.33-3.73,3.26-.72-.03-1.46.11-2.27.17l-.1,3.27c-.04,1.2-.06,3.69.99,4.27,1.08.59,1.75-.23,2.91-.22,2.24.03,3.08,2.69,2.7,4.6Z"/>
          <path class="cls-1" d="M71.68,38.01c-.81,4.16-5.7,4.74-9.21,4.27-1.58-.21-3.09-.81-4.29-1.86-3.54-3.12-2.66-10.02-2.66-14.37-.29.01-.58,0-.87-.02-1.5-.15-2.61-1.45-2.61-2.95v-2.9c0-.95.61-1.81,1.52-2.08.35-.1.73-.15,1.14-.15,1.74.02.69-1.09,1.36-4.07.64-2.81,3.23-3.68,5.77-3.21,3.54.65,3.56,3.79,3.38,6.87l2.38.11c.35.02.89.15,1.25.24,2.18.56,2.51,2.9,2.34,4.78-.18,2.05-1.69,3.33-3.73,3.26-.72-.03-1.46.11-2.27.17l-.1,3.27c-.04,1.2-.06,3.69.99,4.27,1.08.59,1.75-.23,2.91-.22,2.24.03,3.08,2.69,2.7,4.6Z"/>
          <path class="cls-1" d="M105.73,30.63c1.72-.67,2.99-2.13,3.26-4,.15-1.01.19-2.17-.04-3.15-.38-1.67-1.15-3.14-2.29-4.35-1.78-1.88-4.16-2.72-6.66-3.09-1.44-.21-2.78-.11-4.25.14-3.5.6-6.41,2.35-8.28,5.42-1.8,2.96-2.33,5.95-2,9.41.04.43.19.93.27,1.37,1,5.13,4.62,8.66,9.75,9.66,2.02.4,3.94.48,5.94.13,2.04-.36,4.04-.9,5.65-2.27.94-.8,1.68-1.98,1.7-3.31.03-1.86-1.18-3.51-2.91-3.86-2.51-.5-4.44,2-7.65,1.49-1.59-.25-2.96-1.15-3.31-2.92,3.47-.2,7.53.6,10.81-.69ZM94.69,26.83c.41-2.09,1.27-3.93,3.63-3.89,1.26.02,2.24.72,2.5,2.05.15.74-.44,1.62-1.39,1.76-.86.13-1.78.16-2.64.14l-2.1-.06Z"/>
          <path class="cls-1" d="M17.5,35.81c.26,3.35-.99,6.35-4.62,6.59-2.1.14-4.29-.5-5.29-2.52-.43-.87-.71-1.93-.73-2.91-.04-1.6-.04-3.12.03-4.69l.14-3.31.11-3.63c.08-2.8,0-5.52-.19-8.34-.16-2.44-.56-6.48,1.72-7.87,1.69-1.03,3.7-1.1,5.56-.57,3.24.92,3.15,4.23,3.01,6.89l-.23,4.42c-.11,2.18-.1,4.35-.01,6.54l.13,3.21.23,4.4.14,1.79Z"/>
          <path class="cls-1" d="M83.92,36.2c.23,3.22-1.13,5.85-4.58,6.17-.6.06-1.09.05-1.69-.02-1.98-.22-3.67-1.76-4.11-3.7-.15-.66-.28-1.29-.27-1.95l.11-6.46.13-2.55c.14-2.63.12-5.21,0-7.85-.12-2.69-.43-5.34-.09-7.96.21-1.64,1.34-2.86,2.83-3.3,1.7-.5,3.49-.44,5.09.28,2.79,1.24,2.37,5.09,2.24,7.63l-.13,2.69c-.15,3.08-.12,6.09.03,9.15l.13,2.81.12,2.47.18,2.59Z"/>
          <g>
            <path class="cls-1" d="M24.13,42.34c-2.26-.31-4.01-2.12-4.19-4.45-.16-2.11-.07-4.24.02-6.37l.12-2.95.13-3.87c.01-.36.17-.89.26-1.27.22-.91.75-1.75,1.38-2.4,1.43-1.47,5.85-2.02,7.48,1.12.54,1.03.6,2.22.66,3.4l.09,1.92.11,2.09.12,5.04c.03,1.15.13,2.29,0,3.41-.37,3.14-3,4.77-6.18,4.33Z"/>
            <path class="cls-1" d="M28.75,16.91c-2.62,1.73-7.2,1.34-8.74-1.57-.61-1.16-.65-2.56-.33-3.85.46-1.88,2.22-2.99,4.01-3.36,3.03-.63,6.28.66,6.99,3.87.39,1.78-.34,3.86-1.93,4.91Z"/>
          </g>
        </g>
      </g>
    </g>
  </g>
</svg>