<?xml version="1.0" encoding="UTF-8"?>
<svg id="Layer_2" data-name="Layer 2" xmlns="http://www.w3.org/2000/svg" viewBox="0 0 36.67 50.48">
  <defs>
    <style>
      .cls-1 {
        fill: #537d84;
        stroke-width: 0px;
      }
    </style>
  </defs>
  <g id="Layer_1-2" data-name="Layer 1">
    <path class="cls-1" d="M25.98,47.65c-4.56,3.77-10.66,3.75-15.2.06-2.63-2.14-4.51-4.85-6.03-7.97C.7,31.38-1.9,19.18,1.73,10.31,3.47,6.05,6.77,2.78,11.14,1.26c5.32-1.86,11.17-1.7,16.23.78,7.1,3.49,9.55,11.22,9.28,18.75-.26,7.14-2.1,14.13-5.48,20.38-1.38,2.54-2.96,4.64-5.2,6.49ZM27.25,11.85c0-4.92-3.99-8.91-8.91-8.91s-8.91,3.99-8.91,8.91,3.99,8.91,8.91,8.91,8.91-3.99,8.91-8.91ZM33.08,14.1l-18.21,18.16c-.53.53-1.71-.01-1.98-.44-.3-.48-.36-1.27.1-1.74l3.39-3.49L3.63,13.86c-2.46,9.04,1.72,25.44,8.81,31.44,3.4,2.87,7.84,3.05,11.38.31,2.58-2,4.33-4.69,5.75-7.72,3.07-6.53,5.4-16.41,3.51-23.79Z"/>
    <path class="cls-1" d="M17.31,13.97c1.63,1.34,2.16-.93,3.31-.02.26.21.41.95.16,1.22-1.25,1.43-3.28,1.46-4.68.24-.39-.34-.46-1.01-.13-1.39.28-.31.99-.34,1.33-.06Z"/>
    <circle class="cls-1" cx="15.25" cy="9.73" r="1.43"/>
    <circle class="cls-1" cx="21.42" cy="9.74" r="1.43"/>
  </g>
</svg>