<?xml version="1.0" encoding="UTF-8"?>
<svg id="Layer_2" data-name="Layer 2" xmlns="http://www.w3.org/2000/svg" viewBox="0 0 50.45 49.27">
  <defs>
    <style>
      .cls-1 {
        fill: #537d84;
        stroke-width: 0px;
      }
    </style>
  </defs>
  <g id="Layer_1-2" data-name="Layer 1">
    <path class="cls-1" d="M24.89,49.26c-10.4-.17-19-7.71-20.8-17.91-1.6-.41-2.92-1.31-3.5-2.53-.74-1.54-.85-3.1-.03-4.54.89-1.59,2.47-2.45,4.23-2.72,2.39-7.19,7.95-12.53,15.28-14.43l1.59-3.73c.31-.73.89-1.11,1.65-.77,1.57.71-.35,2.67-.54,3.96l2.73-.12,2.43-5.72c.27-.64.9-.91,1.49-.66.63.26.79.97.52,1.62l-2.1,4.97,3.16.58,1.91-4.49c.2-.47.88-.88,1.29-.81.52.08,1.12.77.89,1.32l-1.95,4.77c6.1,2.52,10.56,7.38,12.52,13.61,2.45.21,4.44,1.85,4.76,4.34s-1.54,4.89-4.1,5.33c-1.66,10.47-10.95,18.11-21.42,17.94ZM27.53,46.26c8.94-1.08,15.62-8.35,16.22-17.27l3.12-.81c.63-.54.88-1.75.6-2.38-.34-.78-1.01-1.25-1.9-1.29l-1.97-.09-1.06-3.12c-1.69-4.97-5.61-8.77-10.53-10.65l-1.07,2.31c-.28.6-.92.96-1.56.61-.38-.21-.7-.84-.51-1.33l.92-2.4-3.13-.41-1.33,2.88c-.17.36-.98.63-1.31.52s-.86-.83-.73-1.16l.89-2.38c-1.04.11-1.97.24-2.77.45l-1.48,3.26c-.22.5-.79.79-1.3.68-.41-.08-.85-.72-.74-1.26s.36-1.07.73-1.67l-1.12.04c-.5.38-1.06.72-1.7,1.08-1.79,1.01-3.64,2.67-4.98,4.27-2.01,2.41-3.1,5.18-3.9,8.24-1.4.3-3.68-.36-4.09,1.79-.15.8.34,1.92,1.31,2.18.71.19,1.55.3,2.4.45.48,2.53.84,4.97,1.99,7.23,3.6,7.09,10.91,11.18,18.99,10.2Z"/>
    <path class="cls-1" d="M29.79,36.42c-.32,1.81-5.4,4.15-8.76.74-.37-.37-.36-1.02-.14-1.35.23-.35.98-.78,1.33-.45,1.52,1.4,3.7,1.84,5.33.45.37-.31.89-.63,1.34-.58.36.04,1.02.61.91,1.19Z"/>
    <path class="cls-1" d="M20.62,27.38c-.7.83-1.53,1.17-2.51.84-.65-.22-1.29-1.04-1.4-1.87-.12-.89.54-1.73,1.44-2.13s1.8.02,2.34.62c.62.69.79,1.78.13,2.54Z"/>
    <path class="cls-1" d="M30.99,24.18c1.27-.36,2.43.4,2.65,1.53.21,1.06-.39,2.22-1.44,2.53-1.18.35-2.27-.25-2.68-1.48-.32-.94.2-2.23,1.47-2.59Z"/>
  </g>
</svg>