<?xml version="1.0" encoding="UTF-8"?>
<svg id="Layer_2" data-name="Layer 2" xmlns="http://www.w3.org/2000/svg" viewBox="0 0 50.39 40.85">
  <defs>
    <style>
      .cls-1 {
        fill: #537d84;
        stroke-width: 0px;
      }
    </style>
  </defs>
  <g id="Layer_1-2" data-name="Layer 1">
    <path class="cls-1" d="M48.69.39c.92.56,1.54,1.35,1.66,2.18.15,1.02-.11,1.97-.91,2.69v32.81c0,1.33-.69,2.61-1.99,2.74s-2.41-.89-2.39-2.19l.06-3.21H5.33s-.08,3.48-.08,3.48c-.02,1.09-1.1,1.96-2.1,1.97-.94.01-2.14-.82-2.14-1.99V5.42C-.07,4.23-.39,2.58.58,1.37S3.12-.39,4.46.34c1.02.55,1.44,1.37,1.75,2.22.44,1.22-.52,1.9-.76,2.93-.36,1.55-.11,3.39-.11,5,7.09-2.64,12.82-3.23,20.2-3.25,6.33,0,13.96.83,19.58,3.41-.08-1.61-.07-2.98.05-4.54.08-1.04-2.39-2.98.02-5.22.88-.82,2.28-1.26,3.51-.5ZM19.69,11.51l-.08,19.66,4.11.02.08-19.66-4.11-.02ZM26.58,11.52l-.02,19.65h4.2s.02-19.65.02-19.65h-4.2ZM37.65,12.68l-3.3-.54c-.13-.02-.4-.13-.47-.22l-.3-.44v19.68s4.07.04,4.07.04V12.68ZM12.74,31.16l4.02-.02.02-19.24-4.05.84v18.42ZM9.83,31.14V13.49c-1.6.43-3.16.98-4.56,1.88v15.79s4.56-.02,4.56-.02ZM45.06,29.47v-14.18c-1.44-.8-2.76-1.33-4.52-1.82l-.02,17.67h4.56s-.01-1.68-.01-1.68Z"/>
  </g>
</svg>