<?xml version="1.0" encoding="UTF-8"?>
<svg id="Layer_2" data-name="Layer 2" xmlns="http://www.w3.org/2000/svg" viewBox="0 0 50.44 50.42">
  <defs>
    <style>
      .cls-1 {
        fill: #537d84;
        stroke-width: 0px;
      }
    </style>
  </defs>
  <g id="Layer_1-2" data-name="Layer 1">
    <path class="cls-1" d="M33.44,29.93c1.17,5.45-.37,10.94-4.05,14.93-3.53,3.84-8.28,5.83-13.52,5.53-7.46-.43-13.71-5.88-15.43-13.11-.92-3.86-.39-8.04,1.48-11.54,3.54-6.64,10.8-10.21,18.14-8.86,1.16.21,1.81.75,2,1.84.17.96-.67,2.06-1.8,2.13-2.83.18-5.51,1.4-7.15,3.75-3.28,4.71-1.64,11.25,3.57,13.59,3.02,1.36,6.29,1.06,9.03-.79,2.27-1.54,3.62-4.14,3.82-6.88.08-1.13.57-1.94,1.67-2.12.91-.15,1.99.36,2.24,1.54Z"/>
    <path class="cls-1" d="M32.47,24.74c-.42.1-.87.34-1.13.62-.95,1.03-2.52,1.27-3.59.25s-1.98-1.92-2.99-3c-.62-.66-.73-2.27-.16-2.95l1.26-1.52c-3.15-3.91-5.75-8.17-7.19-13.03-.54-1.83.95-3.54,2.54-4.03,1.69-.51,3.65.43,4.28,2.18,1.77,4.85,4.36,9.04,7.95,12.75,3.6,3.71,7.83,6.69,12.7,8.51,1.5.56,2.86,1.28,3.26,2.97.29,1.19-.1,2.41-.96,3.24-.8.77-2.09,1.42-3.33,1.02-4.66-1.52-8.75-3.87-12.65-7.01Z"/>
    <path class="cls-1" d="M37.57,16.93c-1.55-1.26-2.75-2.48-4.08-3.96l.99-1.04,1.83-1.92c-.51-1.83-.66-3.81.13-5.53,1.04-2.27,3.06-3.88,5.25-4.33,2.54-.52,5.11.37,6.76,2.18,3.1,3.4,2.49,8.32-1.24,10.95-1.94,1.37-4.35,1.6-6.76.78l-2.88,2.88Z"/>
  </g>
</svg>