<?xml version="1.0" encoding="UTF-8"?>
<svg id="Layer_2" data-name="Layer 2" xmlns="http://www.w3.org/2000/svg" viewBox="0 0 50.46 43.05">
  <defs>
    <style>
      .cls-1 {
        fill: #537d84;
        stroke-width: 0px;
      }
    </style>
  </defs>
  <g id="Layer_1-2" data-name="Layer 1">
    <path class="cls-1" d="M42.98,5.3c4.52,5.36,6.78,14.95,7.4,21.82.27,3.06-.14,6.01-1.81,8.52-3.67,5.52-11.09,6.91-17.28,7.23-4.92.25-9.72.27-14.61-.19-3.55-.33-6.94-1.11-10.01-2.78C2.39,37.57-.17,33.41,0,28.51c.13-3.55.79-6.86,1.64-10.3C3.31,11.46,5.9,5.63,11.58,1.42c3.04-2.26,7.28-1.63,8.48,1.18.56,1.31.48,2.7-.26,3.86-.96,1.53-.7,3.17.73,4.38,2.42,2.03,7.7,2.08,10-.61,1.16-1.36.8-2.65.08-3.96-1.18-2.15-.33-4.66,1.86-5.71,1.42-.68,3.36-.79,4.84-.06,2.28,1.12,4.04,2.87,5.67,4.8ZM45.98,18.51c-1.41-5.82-3.99-11.55-8.9-14.94-1.1-.76-2.59-.99-3.76-.26-.46.28-.44,1.34-.16,1.78,2.36,3.69.11,7.45-3.23,9.03-3.7,1.75-7.97,1.36-11.19-1.11-.62-.48-1.07-1.1-1.48-1.73-2.73-4.17,1.51-6.62.03-7.86-1.29-1.08-2.92-.55-4.17.37-3.39,2.51-5.61,5.89-7.08,9.82-1.12,2.99-1.88,5.98-2.47,9.15-.93,5.08-1.67,10.33,2.94,13.69,1.98,1.44,4.18,2.31,6.61,2.82s5.01.84,7.62.84h9.26c4.34-.02,10.37-1.02,13.92-3.59,2.26-1.63,3.58-4.07,3.67-6.92.12-3.71-.69-7.32-1.6-11.09Z"/>
    <path class="cls-1" d="M34.57,22.38c-.74,2.51-1.39,3.76-3.36,5.41-2.69,2.25-6.41,2.82-9.81,1.33-2.77-1.21-5.23-4.09-5.49-7.44-.07-.91,1.08-1.52,1.86-1.51l15.36.03c.36,0,.95.45,1.19.67.27.25.38,1.1.25,1.52Z"/>
  </g>
</svg>