<?xml version="1.0" encoding="UTF-8"?>
<svg id="Layer_2" data-name="Layer 2" xmlns="http://www.w3.org/2000/svg" viewBox="0 0 50.43 50.35">
  <defs>
    <style>
      .cls-1 {
        fill: #537d84;
        stroke-width: 0px;
      }
    </style>
  </defs>
  <g id="Layer_1-2" data-name="Layer 1">
    <path class="cls-1" d="M32.83,13.12c1.1-1.67.92-3.65-.27-5.12-1.02-1.26-3.08-2.1-4.67-1.35-.51,2.03-1.51,3.98-3.57,4.72-1.06.38-2.19.45-3.23-.18-2.3-1.38-2.22-4.91-.18-7.32,3.68-4.36,10.02-5.13,14.61-1.82,4.51,3.26,5.95,9.7,2.74,14.47l-4.16,6.17-3.3-3.39c-.41-.42-.85-1.78-.52-2.29l2.57-3.89Z"/>
    <path class="cls-1" d="M15,41.55l-2.71,1.6c.01-3-2.34-5.23-5.14-4.98s-4.78,2.96-4.16,5.68,3.82,4.74,6.47,3.19l34.69-20.2,6.28-1.68c-1.76,1.25-3.11,3.05-5.02,4.18L11.67,49.19c-4.01,2.36-8.92,1.05-10.92-3.09-1.94-4.02.06-8.92,4.22-10.37,4.41-1.54,9.15,1.02,10.03,5.83Z"/>
    <path class="cls-1" d="M7.67,33.22l-3.66.65,13.59-24.15c.43.96.99,1.82,1.75,2.77l-11.68,20.74Z"/>
  </g>
</svg>