<?xml version="1.0" encoding="UTF-8"?>
<svg id="Layer_2" data-name="Layer 2" xmlns="http://www.w3.org/2000/svg" viewBox="0 0 50.49 37.99">
  <defs>
    <style>
      .cls-1 {
        fill: #537d84;
        stroke-width: 0px;
      }
    </style>
  </defs>
  <g id="Layer_1-2" data-name="Layer 1">
    <path class="cls-1" d="M43.5,11.63l3.48.1c1.84.05,3.48,1.65,3.49,3.56l.02,12.23c0,1.59-.88,2.93-2.44,3.6-.49-2.9-2.51-5.11-5.04-5.96-3-1.01-5.95-.09-8.08,2.27-2.12-2.33-5.11-3.27-8.07-2.28-2.62.88-4.72,3.19-5.08,6.21h-2.37c.7-3.55-.16-6.99-2.61-9.6-2.3-2.47-5.66-3.84-9.38-3.32V3.5C7.44,1.69,9.08.01,10.88,0h12.59c2.1-.01,3.62,1.83,3.63,3.82v7.85s5.74-.02,5.74-.02l.03-7.35c0-1.09,1.03-1.86,2.04-1.86h6.52c1.17,0,2.05.93,2.06,2.05v7.12ZM20.02,15.63c1.14,0,1.84-.95,1.84-1.92v-7.48c0-1.12-.81-1.94-1.93-1.94h-5.5c-1.07.01-1.79.9-1.79,1.91v7.52c0,1.02.68,1.91,1.8,1.91h5.58Z"/>
    <circle class="cls-1" cx="8.98" cy="29" r="8.98"/>
    <path class="cls-1" d="M34.94,31c.94-3.17,3.54-4.94,6.72-4.44,2.62.41,4.85,2.8,4.75,5.8-.09,2.83-2.14,5.28-5.19,5.6-2.86.31-5.4-1.53-6.31-4.47-.97,3.15-3.54,4.81-6.55,4.44-2.76-.34-4.95-2.83-4.93-5.74.02-2.9,2.23-5.38,5.08-5.69,3.01-.33,5.49,1.51,6.43,4.51Z"/>
  </g>
</svg>