<?xml version="1.0" encoding="UTF-8"?>
<svg id="Layer_2" data-name="Layer 2" xmlns="http://www.w3.org/2000/svg" viewBox="0 0 50.51 43.88">
  <defs>
    <style>
      .cls-1 {
        fill: #537d84;
        stroke-width: 0px;
      }
    </style>
  </defs>
  <g id="Layer_1-2" data-name="Layer 1">
    <path class="cls-1" d="M4.96,38.09C.4,33.67-.98,27.24.67,21.3c.58-2.09,2.01-4.32,4.26-3.89,1.75.34,2.3,3.75,5.16,4.84,1.37.21,2.85-.05,4.13-.74,2.6-1.4,5.26-2.22,8.37-2.38-4.43-4.89-3.93-12.22.83-16.35,4.83-4.18,12.12-3.59,16.17,1.27s3.45,12.25-1.84,16.38c4.08,2.12,6.46,6.07,6.16,10.68-.2,3.03-1.43,5.67-3.76,7.63-1.38,1.11-2.82,2.05-4.56,2.73-7.75,3.02-16.43,3.22-24.28.39-2.35-.85-4.52-2-6.35-3.78ZM39.06,10.74c0-1.71-1.39-3.1-3.1-3.1s-3.1,1.39-3.1,3.1,1.39,3.1,3.1,3.1,3.1-1.39,3.1-3.1ZM28.6,39.85c2.05-.4,3.98-1.15,5.39-2.71,1.51-1.67,1.65-4.11.58-6.16-1.07-2.04-3.48-2.97-5.78-2.97s-4.43.68-6.51,1.68c-3.61,1.75-8.94,3.42-12.87,2.03-.28-.1-.99,0-1.13.25-.71,1.21,1.11,3.48,2.24,4.42,4.54,3.81,12.55,4.52,18.09,3.45Z"/>
    <path class="cls-1" d="M48.03,16.73c.14.12.25.65.15.78s-.49.32-.68.32l-5.57.02c1.37-2.53,1.99-5.16,1.66-8.07,3.99,1.62,5.04-1.35,6.44.02,1.84,1.79-2.1,4.56-3.73,5.39l1.74,1.54Z"/>
    <circle class="cls-1" cx="36.4" cy="11.18" r="1.66"/>
  </g>
</svg>