<?xml version="1.0" encoding="UTF-8"?>
<svg id="Layer_2" data-name="Layer 2" xmlns="http://www.w3.org/2000/svg" viewBox="0 0 38.95 50.52">
  <defs>
    <style>
      .cls-1 {
        fill: #537d84;
        stroke-width: 0px;
      }
    </style>
  </defs>
  <g id="Layer_1-2" data-name="Layer 1">
    <path class="cls-1" d="M26.52,23.02l-13.91.02c-1.75,0-3.36-.59-4.68-1.65-2.39-1.93-2.64-5.3-.55-7.55,1.23-1.32,2.87-1.9,4.69-2.18-2.41-3.13-1.76-7.12,1.21-9.52,3.58-2.89,8.98-2.85,12.51.12,2.87,2.42,3.41,6.29,1.1,9.39,1.79.29,3.37.86,4.59,2.12,1.83,1.89,2.03,4.72.31,6.81-1.23,1.49-3.16,2.43-5.29,2.43Z"/>
    <path class="cls-1" d="M37.57,48.29c-1.44,1.58-3.37,2.22-5.48,2.22H6.92c-2.24.01-4.34-.76-5.72-2.44-1.85-2.26-1.5-5.33.71-7.18,1.34-1.12,2.96-1.72,4.8-1.72h25.59c2.01,0,3.84.76,5.18,2.13,1.91,1.95,1.98,4.93.1,6.99Z"/>
    <path class="cls-1" d="M29.78,36.9l-19.93.03c-2.04,0-3.93-.65-5.34-2.06-2.05-2.06-2.03-5.26.07-7.28,1.28-1.24,3.01-2,4.88-2h19.9c2.02,0,3.93.81,5.23,2.22,1.9,2.06,1.86,5.05-.13,7.03-1.18,1.17-2.81,2.07-4.67,2.07Z"/>
  </g>
</svg>