<?xml version="1.0" encoding="UTF-8"?>
<svg id="Layer_2" data-name="Layer 2" xmlns="http://www.w3.org/2000/svg" viewBox="0 0 50.49 46.77">
  <defs>
    <style>
      .cls-1 {
        fill: #537d84;
        stroke-width: 0px;
      }
    </style>
  </defs>
  <g id="Layer_1-2" data-name="Layer 1">
    <path class="cls-1" d="M37.2,30.53l-13.7.02c-8.25,0-13.62-7.23-13.43-15.15-1.11-2.37-3.08-4.08-5.53-5.01-1.47,1.01-3.31.68-4.16-.8s-.24-3.4,1.36-3.99,3.36.22,3.77,2c3.08,1.23,5.67,3.32,7.19,6.44h37.69c.95,8.02-4.38,16.47-13.17,16.48Z"/>
    <path class="cls-1" d="M50,12.02l-18.12.02L29.75.01h6.18c6.79.29,12.62,4.96,14.07,12.01Z"/>
    <path class="cls-1" d="M26.98,39.28c0,4.13-3.35,7.48-7.48,7.48s-7.48-3.35-7.48-7.48,3.35-7.48,7.48-7.48,7.48,3.35,7.48,7.48ZM23.34,39.28c0-2.12-1.72-3.84-3.84-3.84s-3.84,1.72-3.84,3.84,1.72,3.84,3.84,3.84,3.84-1.72,3.84-3.84Z"/>
    <path class="cls-1" d="M48.54,39.28c0,4.13-3.35,7.48-7.48,7.48s-7.48-3.35-7.48-7.48,3.35-7.48,7.48-7.48,7.48,3.35,7.48,7.48ZM44.9,39.28c0-2.12-1.72-3.84-3.84-3.84s-3.84,1.72-3.84,3.84,1.72,3.84,3.84,3.84,3.84-1.72,3.84-3.84Z"/>
  </g>
</svg>