<?xml version="1.0" encoding="UTF-8"?>
<svg id="Layer_2" data-name="Layer 2" xmlns="http://www.w3.org/2000/svg" viewBox="0 0 27.74 50.4">
  <defs>
    <style>
      .cls-1 {
        fill: #537d84;
        stroke-width: 0px;
      }
    </style>
  </defs>
  <g id="Layer_1-2" data-name="Layer 1">
    <path class="cls-1" d="M22.87,50.4l-17.87-.09C2.06,50.3-.01,47.36,0,44.61l.09-24.28c0-2.51,2.64-4.93,5.08-4.93h17.2c2.9-.01,5.37,2.65,5.37,5.52v24.07c-.01,2.75-2.25,4.84-4.87,5.42ZM2.87,36.86h5.71c.47,0,.98.54,1.03.9s-.46,1.08-.89,1.09c-2.03.06-3.88.04-5.92-.01l-.03,2.5h3.45c.4.02.99.59,1,.95s-.45,1.09-.84,1.09h-3.65c-.19,1.97.79,4.27,2.97,4.28h16.25c1.28,0,2.89-1.11,2.89-2.49v-24.75c0-1.12-1.27-2.16-2.3-2.16l-17.1-.02c-1.88,0-2.62,1.75-2.63,3.25l-.02,1.88,3.56.12c.35.01.84.61.89.92.04.27-.35.87-.63.88l-3.7.1-.16,2.55,5.84.03c.52,0,1.03.46,1.02.94,0,.32-.46.97-.82.97l-5.96.05-.05,2.49,3.63-.02c.36,0,.88.69.83,1.03-.05.3-.54.94-.89.95l-3.56.05.08,2.43Z"/>
    <path class="cls-1" d="M23.13,13.29H4.7c-.42-1.65-.19-3.69,1.23-4.85,1.12-.91,2.54-.96,4.03-.96l.28-2.06c-.66-1.7-.13-3.38,1.14-4.5,1.34-1.18,3.34-1.18,4.7-.2,1.52,1.1,2.03,2.85,1.41,4.68l.44,2.13c2.33-.35,4.64.67,5.15,3.08.16.77.12,1.58.08,2.69Z"/>
  </g>
</svg>