<?xml version="1.0" encoding="UTF-8"?>
<svg id="Layer_2" data-name="Layer 2" xmlns="http://www.w3.org/2000/svg" viewBox="0 0 50.41 44.11">
  <defs>
    <style>
      .cls-1 {
        fill: #537d84;
        stroke-width: 0px;
      }
    </style>
  </defs>
  <g id="Layer_1-2" data-name="Layer 1">
    <path class="cls-1" d="M38,35.91c-3.7.14-6.66,2.68-7.34,6.42-.12.64-.44,1.72-1.29,1.73-2.86.05-5.6.07-8.46-.03-.72-.03-1.03-1.35-1.13-1.88-.68-3.53-3.57-6.11-7.16-6.19-.69-.02-1.27-.46-1.3-1.21l-.67-15.27-6.2,1.64c-.51.14-1.08-.6-1.26-1.07L.03,11.61c-.15-.4.33-1.14.59-1.3L16.94.2c.38-.23,1.02-.26,1.38-.07,1.04.56.49,4.72,4.82,6.34,3.72,1.39,7.71-1.12,8.3-5.08.07-.49.4-1.06.73-1.24.5-.26,1.11-.13,1.62.19l9.77,6,5.86,3.6c.31.19.81.54.93.81s.04.89-.09,1.23l-2.92,7.94c-.31.85-1.02,1.22-1.9.99l-5.59-1.49-.64,14.83c-.03.72-.34,1.63-1.21,1.66ZM36.92,27.53l.22-5.18.13-3.94c.02-.58.39-1.95,1.17-1.84,2.29.34,4.42,1.03,6.8,1.67l2.33-6.26c-.23-.35-.67-.65-1.14-.93l-12.81-7.82c-.58,1.63-1.58,2.92-2.9,4.15-2.63,2.27-6.54,2.73-9.58.96-2.04-1.19-3.45-2.92-4.3-5.11l-5.93,3.68-3.89,2.42-4.19,2.53,2.38,6.48,6.01-1.61c.47-.13,1.15-.13,1.44.16.27.26.47.86.49,1.31l.69,15.29c4.28.71,7.44,3.9,8.42,8.06l5.95.03c.88-4.14,4.12-7.41,8.4-8.09l.31-5.95Z"/>
    <circle class="cls-1" cx="25.22" cy="15.63" r="1.79"/>
    <path class="cls-1" d="M26.73,28.07c.66.9.09,1.84-.46,2.26-.82.62-1.83.4-2.39-.28-.67-.79-.64-1.87.28-2.53.33-.24.96-.49,1.31-.44.42.05.93.54,1.26.99Z"/>
    <circle class="cls-1" cx="25.24" cy="22.26" r="1.78"/>
  </g>
</svg>