<?xml version="1.0" encoding="UTF-8"?>
<svg id="Layer_2" data-name="Layer 2" xmlns="http://www.w3.org/2000/svg" viewBox="0 0 49.64 50.44">
  <defs>
    <style>
      .cls-1 {
        fill: #537d84;
        stroke-width: 0px;
      }
    </style>
  </defs>
  <g id="Layer_1-2" data-name="Layer 1">
    <path class="cls-1" d="M44.3,29.15c-2.34,5.41-9.07,12.43-15.5,9.03-2.12-1.12-3.21-3.56-3.01-5.98.18-2.25.89-4.35,1.6-6.47,1.71-5.09,0-7.61.99-11.07.13-.45.62-1.31.94-1.6,2.34-2.12,5.87-2.05,8.76-1.42,4.08.88,8.02,2.93,8.66,7.47.27,1.92-.12,3.79-.7,5.65-.48,1.53-.94,3.02-1.76,4.4Z"/>
    <path class="cls-1" d="M21.84,32.82c.08,4.56,5.47,11.27,1.01,15.74-1.75,1.75-4.39,2.26-6.81,1.62-5.42-1.43-9.46-7.13-11.42-12.15-1.53-3.92-2.6-7.91.49-11.4,1.58-1.77,3.76-2.63,6.03-3.29s4.81-.99,7.19-.21c1.9.63,3.37,2.13,3.41,4.2l.1,5.48Z"/>
    <path class="cls-1" d="M4.69,23.24c.02,1.09-.8,3.16-2.56,2.93-.57-.08-1.14-.51-1.52-1.05-.86-1.21-.86-2.85.31-3.89.4-.35,1.08-.49,1.65-.53-.1-1.03-.02-2.3.87-3.01.8-.64,1.73-.32,2.66.35l.54-1.72c.26-.81,1.16-1.45,1.96-1.47.88-.02,1.57.6,2.17,1.45l.71-1.82c.36-.93,1.49-1.86,2.54-1.84,1.47.03,2.32,1.3,2.84,2.45.71-2.29,2.77-4.35,4.99-3.7.72.21,1.43.88,1.86,1.76,1.27,2.61.49,5.85-1.72,7.71-.98.82-2.11,1.04-3.26.54-.95-.42-1.59-1.25-1.93-2.57-.55,1.45-1.49,2.57-2.97,2.56-1.13-.01-1.91-.96-2.48-1.82-.31,1.09-.8,2.13-1.93,2.44-.76.21-1.56-.3-2.35-.77,0,.71-.12,1.3-.47,1.67-.48.51-1.21.96-1.92.34Z"/>
    <path class="cls-1" d="M47.72,14.2c-.55.15-1.52-.1-1.85-.48-.43-.5-.65-1.19-.79-2.07-1.08.3-2.03-.12-2.39-1.24-.09-.28-.24-.64-.35-.92-.87.87-1.78,1.25-2.73.68-.76-.46-1.17-1.31-1.37-2.23-.69.96-1.82,2.54-3.29,1.88-.95-.43-1.65-1.19-2.18-1.98-.31.57-.74,1.41-1.21,1.84-1.49,1.37-3.4.76-4.63-.65-2.27-2.6-2.58-7.35.3-8.75,2.26-1.1,4.46,1.26,5.32,3.3.69-1.53,2.3-3.15,3.99-2.13,1.26.77,1.78,2.05,2.11,3.48.44-1.11,1.59-2.01,2.73-1.65,1.25.4,1.74,1.95,2.01,3.03.47-.38,1.16-.79,1.68-.77,1.54.04,2.04,1.88,1.98,3.33,1.39-.15,2.47.84,2.57,2.25.1,1.33-.41,2.68-1.91,3.08Z"/>
  </g>
</svg>