<?xml version="1.0" encoding="UTF-8"?>
<svg id="Layer_2" data-name="Layer 2" xmlns="http://www.w3.org/2000/svg" viewBox="0 0 44.37 50.52">
  <defs>
    <style>
      .cls-1 {
        fill: #537d84;
        stroke-width: 0px;
      }
    </style>
  </defs>
  <g id="Layer_1-2" data-name="Layer 1">
    <path class="cls-1" d="M20.78,50.52L0,39.04V13.66s20.79,11.47,20.79,11.47v25.39ZM11.22,36.38l.58,4.18,2.38,1.43-2.34-16.11-2.94-1.84-3.74,12.23,2.31,1.42.92-3.13,2.84,1.82Z"/>
    <path class="cls-1" d="M44.37,39.03l-20.78,11.5-.03-25.39,20.78-11.47.03,25.36ZM38.86,32.31c-.02-.67-.15-1.38-.69-1.7-.41-.25-1.16-.24-1.76-.16,1.22-.91,2.84-3.9,1.55-4.9-1.69-1.32-6.48,2.24-8.08,3.37l.04,11.79c3.76-1.77,8.43-4.32,8.94-8.4Z"/>
    <path class="cls-1" d="M22.4,22.89L1.59,11.37,21.5,0l20.81,11.53-19.91,11.36ZM28.55,11.08c-1.78,2.66-5.02,3.25-7.73,1.85-.71-.36-1.41-.79-1.9-1.38-.72-.86-.66-2.14.2-2.87.8-.67,1.62-1.08,2.64-1.63l-1.5-1.42c-1.68.63-3.19,1.49-4.24,2.9-.98,1.31-.9,3.05.25,4.28,3.91,4.17,11.13,4.15,14.57-.82l-2.28-.92Z"/>
    <path class="cls-1" d="M10.99,33.7c-.83-.45-1.46-.86-2.18-1.36l1.37-5.04.81,6.4Z"/>
    <path class="cls-1" d="M35.76,32.97c1.16,1.21-1.5,3.87-3.17,4.32l-.05-3.38,2.03-1.11c.23-.13,1-.03,1.19.17Z"/>
    <path class="cls-1" d="M32.61,31.91l-.05-2.7c.72-.66,1.77-1.45,2.86-1.19,1.12,1.3-1.37,3.36-2.81,3.88Z"/>
  </g>
</svg>