<?xml version="1.0" encoding="UTF-8"?>
<svg id="Layer_2" data-name="Layer 2" xmlns="http://www.w3.org/2000/svg" viewBox="0 0 50.32 50.45">
  <defs>
    <style>
      .cls-1 {
        fill: #537d84;
        stroke-width: 0px;
      }
    </style>
  </defs>
  <g id="Layer_1-2" data-name="Layer 1">
    <path class="cls-1" d="M19.56,35.33c-3.72,5.27-8.21,11.58-13.84,14.72-1.35.75-3.34.38-4.49-.67-1.26-1.15-1.63-3.34-.79-4.82.62-1.09,1.32-2.11,2.1-3.06,1.52-1.84,4.47-4.67,6.34-6.1l1.33-1.02,4.74-3.52,4.06-2.89c-3.61-5.54-2.45-13.42,1.54-18.44l-.04,4.76c.76.04,1.64.04,2.45,0l3.88-.16-.07,6.36,3.69-.08,2.6-.06-.1,4.52c-.01.57,0,1.26.03,1.79l6.24-.12v4.31c-4.89,2.95-11.84,3.82-16.83.45l-2.83,4.01Z"/>
    <path class="cls-1" d="M41.18,18.47l.1-6.37-6.32.17.13-6.43-6.23.18-.04-3.89c6.66-3.41,15.2-3.11,19.51,3.76,3.18,5.06,2.3,11.79-.84,16.7l.05-4.36-6.36.24Z"/>
  </g>
</svg>