<?xml version="1.0" encoding="UTF-8"?>
<svg id="Layer_2" data-name="Layer 2" xmlns="http://www.w3.org/2000/svg" viewBox="0 0 50.5 42.43">
  <defs>
    <style>
      .cls-1 {
        fill: #537d84;
        stroke-width: 0px;
      }
    </style>
  </defs>
  <g id="Layer_1-2" data-name="Layer 1">
    <path class="cls-1" d="M44.04,25.71c-.82-1.84-2.76-2.67-4.44-1.73-2.63,1.47-2.08,4.88-2.19,7.58-2.66-2.08-6.13-2.3-8.85-.2-4.16-2.84-10.16-1.75-14.48.2-2.83-2.37-6.71-2.15-9.37.26l-.37-.7c-.75.25-1.46.36-2.15.08-.5-.2-1.11-.9-1.34-1.54-1.04-2.83-1.06-5.87-.43-8.8,1.45-6.72,6.04-11.96,12.47-14.34,2.78-1.03,5.58-1.53,8.59-1.82.87-1.42,1.78-2.69,3.1-3.6,2.58-1.78,5.77-1.37,7.97.85,1.28,1.29,2.13,2.83,2.93,4.5,6.88,2.41,12.17,7.17,14.07,14.32,1.16,4.35,1.52,9.83-.34,14.02-.54,1.21-1.43,2.39-2.66,2.96-1.91.89-4.33.64-5.97-.7-1.71-1.4-1.84-4.04-.51-5.72.22-.28.93-.41,1.23-.34,1.03.26.11,2.05,1.14,2.57,1.86.93,3.27-4.16,1.61-7.87ZM35.28,15.18c-.12-3.75-2-10.18-5.2-12.32-1.4-.94-3.01-.83-4.33.15-1.18.88-2.05,2.09-2.6,3.53-1.17,3.09-2.63,10.26.57,12.45,1.3.89,2.54.88,3.98.55,2.74-.64,6.03-1.7,7.58-4.36ZM42.35,16.95c0-1.2-.97-2.17-2.17-2.17s-2.17.97-2.17,2.17.97,2.17,2.17,2.17,2.17-.97,2.17-2.17Z"/>
    <path class="cls-1" d="M38.23,37.02c0,2.99-2.42,5.42-5.42,5.42s-5.42-2.42-5.42-5.42,2.42-5.42,5.42-5.42,5.42,2.42,5.42,5.42ZM34.29,37.02c0-.82-.66-1.48-1.48-1.48s-1.48.66-1.48,1.48.66,1.48,1.48,1.48,1.48-.66,1.48-1.48Z"/>
    <path class="cls-1" d="M14.98,37.02c0,2.99-2.42,5.41-5.41,5.41s-5.41-2.42-5.41-5.41,2.42-5.41,5.41-5.41,5.41,2.42,5.41,5.41ZM11.04,37.01c0-.81-.66-1.47-1.47-1.47s-1.47.66-1.47,1.47.66,1.47,1.47,1.47,1.47-.66,1.47-1.47Z"/>
    <circle class="cls-1" cx="40.18" cy="16.94" r="1"/>
  </g>
</svg>